# xmcd
#
# Track frame offsets:
#	150
#	13293
#	30453
#	43005
#	56103
#	71378
#	86013
#	100703
#	114090
#	128733
#	142488
#	155970
#	170170
#	184443
#	198480
#	211930
#	224560
#	238310
#
# Disc length: 3357 seconds
#
# Revision: 1
# Processed by: cddbd v1.4PL0 Copyright (c) Steve Scherf et al.
# Submitted via: audiograbber 1.82.02
#
DISCID=1b0d1b12
DTITLE=Various Artist - Tin Pan Alley Blues
DYEAR=1994
DGENRE=
TTITLE0=Original Dixie Land Jazz Band (1921) - Home Again Blues
TTITLE1=Marie Cahill (1917) - The Dallas Blues
TTITLE2=Irving Kaufman (1919) - Alcoholic Clues
TTITLE3=Vernon Dalehart and Ed Smalle (1924) - Boll Weevil Blues
TTITLE4=Al Bernard (1921) - Memphis Blues
TTITLE5=Nora Bayes (1916) - Homesickness Blues
TTITLE6=Al Bernard (1921) - Frankie and Johnnie
TTITLE7=Viola McCoy and F. Henderson's Jazz Five - If Your Good Man Quits You
TTITLE8=Belle Baker (1923) - I've got the "Yes! We Have no Banannas" Blues
TTITLE9=Belle Baker (1923) - Jubilee Blues
TTITLE10=Trixie Smith and Louie Armstrong (1925) - Railroad Blues
TTITLE11=Bessie Smith and Louie Armstrong (1925) - St. Louis Blues
TTITLE12=Edith Wilson and Johnny Dunn's Jazz Hounds (1922) - Take It 'Cause It's 
TTITLE12=All Yours
TTITLE13=Mary Stafford and her Jazz Band (1921) - Down Where They Play the Blues
TTITLE14=Southern Negro Quartet (1921) - Ain't Givin' Nothin' Away
TTITLE15=Ethel Ridley (1923) - I Don't Let No One Man Worry Me
TTITLE16=Irving Kaufman (1918) - Chinese Blues
TTITLE17=Eddie Cantor with the Georgians (1924) - If You Do What I Do
EXTD=1918-1925 Tin Pan Alley Blues
EXTT0=
EXTT1=
EXTT2=
EXTT3=
EXTT4=
EXTT5=
EXTT6=
EXTT7=
EXTT8=
EXTT9=
EXTT10=
EXTT11=
EXTT12=
EXTT13=
EXTT14=
EXTT15=
EXTT16=
EXTT17=
PLAYORDER=
